<svg width="24" height="24" viewBox="0 0 24 24" fill="none" xmlns="http://www.w3.org/2000/svg">
<path d="M12 3.75C10.3683 3.75 8.77326 4.23385 7.41655 5.14038C6.05985 6.0469 5.00242 7.33537 4.378 8.84286C3.75357 10.3504 3.5902 12.0092 3.90853 13.6095C4.22685 15.2098 5.01259 16.6798 6.16638 17.8336C7.32016 18.9874 8.79017 19.7732 10.3905 20.0915C11.9909 20.4098 13.6497 20.2464 15.1572 19.622C16.6646 18.9976 17.9531 17.9402 18.8596 16.5835C19.7662 15.2268 20.25 13.6317 20.25 12C20.25 9.81196 19.3808 7.71354 17.8336 6.16637C16.2865 4.61919 14.188 3.75 12 3.75Z" stroke="white" stroke-width="1.5" stroke-miterlimit="10"/>
<path d="M9.375 9.48234C9.375 9.48234 9.41438 8.66202 10.2923 7.95562C10.8131 7.53608 11.4375 7.41468 12 7.40624C12.5123 7.39968 12.9698 7.48452 13.2436 7.61483C13.7123 7.83796 14.625 8.38265 14.625 9.54093C14.625 10.7597 13.8281 11.3133 12.9202 11.9222C12.0122 12.5311 11.7656 13.192 11.7656 13.875" stroke="white" stroke-width="1.5" stroke-miterlimit="10" stroke-linecap="round"/>
<path d="M11.7188 17.25C12.2365 17.25 12.6562 16.8303 12.6562 16.3125C12.6562 15.7947 12.2365 15.375 11.7188 15.375C11.201 15.375 10.7812 15.7947 10.7812 16.3125C10.7812 16.8303 11.201 17.25 11.7188 17.25Z" fill="white"/>
</svg>
