<svg width="64" height="38" viewBox="0 0 64 38" fill="none" xmlns="http://www.w3.org/2000/svg">
<path d="M13.3157 13.6812C13.2966 12.2108 14.3462 10.9432 15.7945 10.6878L50.2505 4.61233C52.0718 4.29118 53.7472 5.6785 53.7712 7.52778L53.9291 19.6851C53.9482 21.1555 52.8986 22.4231 51.4503 22.6784L16.9943 28.754C15.173 29.0751 13.4977 27.6878 13.4736 25.8385L13.3157 13.6812Z" fill="#FFAE58"/>
<path d="M10.0711 18.315C10.052 16.8445 11.1016 15.577 12.5499 15.3216L47.0059 9.24612C48.8272 8.92496 50.5025 10.3123 50.5265 12.1616L50.6845 24.3188C50.7036 25.7893 49.6539 27.0569 48.2057 27.3122L13.7497 33.3878C11.9284 33.7089 10.253 32.3216 10.229 30.4723L10.0711 18.315Z" fill="#4CD080"/>
<path d="M21.2976 25.9644L18.8834 20.7037L20.0179 20.5037L21.7389 24.6437L22.1136 20.1342L23.2874 19.9272L25.1424 24.0436L25.3516 19.5632L26.5019 19.3604L25.9853 25.1379L24.7168 25.3615L22.9448 21.5311L22.566 25.7408L21.2976 25.9644ZM28.5397 26.4746L27.5034 20.5973L28.4488 20.4306L28.6628 20.9534C28.7212 20.8239 28.7999 20.7017 28.8987 20.5868C28.9967 20.4666 29.1194 20.3638 29.2667 20.2782C29.4194 20.1917 29.5981 20.1304 29.803 20.0943C30.1864 20.0267 30.5339 20.0629 30.8457 20.2029C31.1574 20.3429 31.4186 20.5649 31.6292 20.869C31.839 21.1677 31.9804 21.5246 32.0536 21.9395C32.1267 22.3545 32.1106 22.7391 32.0052 23.0935C31.8998 23.4478 31.7246 23.7441 31.4796 23.9822C31.2389 24.2142 30.9452 24.3608 30.5985 24.4219C30.2991 24.4747 30.0325 24.4676 29.7986 24.4005C29.5691 24.3272 29.372 24.2076 29.2074 24.0417L29.6033 26.2871L28.5397 26.4746ZM30.151 23.5423C30.3506 23.5071 30.5182 23.4288 30.6538 23.3074C30.7885 23.1807 30.8843 23.0176 30.9412 22.818C31.0024 22.6123 31.0108 22.3834 30.9663 22.1312C30.921 21.8739 30.8348 21.6616 30.7078 21.4945C30.5852 21.3211 30.4389 21.198 30.269 21.125C30.0991 21.0521 29.9144 21.0332 29.7148 21.0684C29.5152 21.1036 29.3454 21.185 29.2054 21.3126C29.0707 21.4392 28.9754 21.605 28.9194 21.8098C28.8678 22.0085 28.8642 22.2338 28.9087 22.4859C28.954 22.7433 29.035 22.9565 29.1514 23.1255C29.2731 23.2936 29.4189 23.4141 29.5888 23.487C29.764 23.559 29.9514 23.5775 30.151 23.5423ZM34.7138 23.6963C34.3934 23.7528 34.1184 23.7444 33.8889 23.6711C33.6584 23.5926 33.474 23.4681 33.3356 23.2975C33.1963 23.1217 33.1067 22.9209 33.0669 22.695C33.0224 22.4429 33.044 22.2117 33.1314 22.0013C33.2241 21.79 33.3847 21.6101 33.613 21.4615C33.8466 21.312 34.1498 21.2044 34.5227 21.1386L35.476 20.9705C35.4371 20.7499 35.3873 20.5746 35.3264 20.4445C35.2647 20.3092 35.1726 20.2171 35.0503 20.1683C34.9332 20.1185 34.7722 20.1117 34.5674 20.1478C34.3783 20.1811 34.2303 20.2478 34.1234 20.3479C34.0155 20.4428 33.9598 20.5717 33.956 20.7349L32.924 20.9169C32.9021 20.6391 32.9475 20.3901 33.0603 20.1698C33.1774 19.9434 33.3523 19.7528 33.585 19.598C33.8176 19.4433 34.0968 19.3372 34.4224 19.2798C34.8006 19.2131 35.1347 19.2192 35.4248 19.298C35.7193 19.3706 35.956 19.5157 36.1352 19.7332C36.3187 19.9446 36.4405 20.221 36.5007 20.5624L36.9661 23.2017L36.0758 23.3586L35.8493 22.765C35.8101 22.8802 35.7563 22.9899 35.688 23.094C35.624 23.1919 35.5451 23.2816 35.4511 23.3632C35.3572 23.4447 35.2474 23.5128 35.1216 23.5675C35.002 23.6265 34.8661 23.6694 34.7138 23.6963ZM34.8214 22.8325C34.9422 22.8112 35.0505 22.765 35.1463 22.6939C35.2421 22.6229 35.3215 22.5358 35.3845 22.4326C35.4519 22.3232 35.4986 22.204 35.5245 22.0749C35.5558 21.9448 35.5668 21.8075 35.5575 21.6629L35.5519 21.6314L34.7562 21.7717C34.5987 21.7995 34.4737 21.8432 34.3813 21.9028C34.2889 21.9624 34.226 22.0358 34.1926 22.1229C34.1645 22.2091 34.1593 22.3021 34.1769 22.4019C34.1963 22.5122 34.234 22.603 34.2899 22.6744C34.3511 22.7448 34.4274 22.7936 34.5188 22.8208C34.6102 22.848 34.7111 22.8519 34.8214 22.8325ZM38.7696 24.6708L39.3001 22.3352L39.0638 22.3769L36.843 18.9504L37.9933 18.7476L39.5885 21.2527L40.1205 18.3725L41.255 18.1725L39.8884 24.4735L38.7696 24.6708Z" fill="white"/>
</svg>
